<?xml version="1.0" standalone="no"?>
<!DOCTYPE svg PUBLIC "-//W3C//DTD SVG 20010904//EN"
 "http://www.w3.org/TR/2001/REC-SVG-20010904/DTD/svg10.dtd">
<svg version="1.0" xmlns="http://www.w3.org/2000/svg"
 width="900.000000pt" height="900.000000pt" viewBox="0 0 900.000000 900.000000"
 preserveAspectRatio="xMidYMid meet">
<metadata>
Created by potrace 1.14, written by Peter Selinger 2001-2017
</metadata>
<g transform="translate(0.000000,900.000000) scale(0.100000,-0.100000)"
fill="#000000" stroke="none">
<path d="M4248 8955 c-2 -2 -48 -6 -103 -10 -55 -4 -106 -8 -115 -10 -8 -2
-44 -6 -80 -10 -36 -4 -74 -9 -85 -11 -11 -2 -40 -7 -65 -10 -25 -3 -52 -7
-60 -9 -8 -2 -31 -7 -50 -10 -19 -3 -55 -11 -80 -16 -25 -6 -56 -13 -70 -15
-167 -31 -557 -157 -738 -240 -29 -13 -55 -24 -58 -24 -2 0 -75 -35 -162 -79
-137 -68 -193 -98 -302 -162 -13 -8 -93 -60 -176 -115 -257 -171 -446 -326
-669 -550 -128 -128 -303 -330 -380 -438 -11 -16 -29 -40 -41 -55 -31 -38
-154 -224 -206 -311 -114 -190 -247 -457 -318 -640 -29 -76 -91 -252 -95 -270
-2 -8 -13 -44 -25 -80 -33 -102 -65 -234 -106 -435 -4 -17 -15 -89 -29 -175
-30 -190 -39 -345 -40 -625 0 -220 9 -430 20 -475 2 -8 7 -44 10 -80 3 -36 8
-72 10 -80 2 -8 7 -28 9 -45 28 -168 44 -244 81 -390 57 -221 132 -445 207
-615 11 -25 26 -61 35 -80 147 -336 388 -719 632 -1005 199 -233 430 -459 616
-601 28 -20 77 -59 110 -84 52 -41 293 -203 352 -236 348 -201 621 -323 938
-421 107 -33 292 -81 341 -89 21 -3 42 -8 46 -10 8 -5 75 -17 183 -34 33 -5
69 -11 80 -14 11 -2 47 -7 80 -10 33 -4 74 -9 90 -11 128 -15 235 -20 465 -19
234 0 332 4 460 19 83 10 126 15 146 19 12 2 45 7 75 11 30 4 95 15 144 25 50
11 102 21 116 24 129 22 466 126 665 207 67 27 127 49 134 49 12 0 85 -41 500
-281 477 -274 655 -376 658 -374 2 2 -9 41 -23 87 -15 45 -28 88 -29 93 -2 6
-6 17 -9 25 -3 8 -40 123 -82 255 -42 132 -83 258 -91 280 -27 78 -124 388
-122 389 28 15 225 174 331 269 527 468 957 1113 1187 1781 36 102 115 372
124 420 2 12 15 75 29 141 14 66 28 142 32 168 3 27 8 59 11 70 2 12 7 47 10
77 3 30 7 69 9 85 27 207 27 705 0 935 -63 528 -198 987 -424 1440 -79 158
-144 272 -220 390 -31 47 -58 90 -60 95 -13 32 -250 342 -306 401 -5 6 -37 42
-70 80 -106 121 -291 299 -435 420 -94 78 -297 234 -305 234 -3 0 -28 17 -57
38 -58 42 -79 55 -205 129 -184 108 -287 161 -478 246 -132 59 -385 153 -465
172 -8 3 -55 16 -105 30 -49 14 -99 27 -110 29 -11 3 -49 11 -85 20 -36 8 -81
18 -100 21 -19 3 -42 8 -50 10 -8 3 -31 7 -50 9 -19 3 -64 9 -100 15 -75 12
-109 16 -205 26 -38 4 -79 10 -90 12 -21 5 -602 12 -607 8z"/>
</g>
</svg>
